<svg xmlns="http://www.w3.org/2000/svg" viewBox="0 0 1200 480" font-family="Pretendard, -apple-system, BlinkMacSystemFont, sans-serif">
  <defs>
    <pattern id="grid" width="40" height="40" patternUnits="userSpaceOnUse">
      <path d="M 40 0 L 0 0 0 40" fill="none" stroke="#1e293b" stroke-width="0.5"/>
    </pattern>
    <marker id="arr" markerWidth="10" markerHeight="7" refX="9" refY="3.5" orient="auto"><polygon points="0,0 10,3.5 0,7" fill="#64748b"/></marker>
    <marker id="arr-input" markerWidth="10" markerHeight="7" refX="9" refY="3.5" orient="auto"><polygon points="0,0 10,3.5 0,7" fill="#60a5fa"/></marker>
    <marker id="arr-llm" markerWidth="10" markerHeight="7" refX="9" refY="3.5" orient="auto"><polygon points="0,0 10,3.5 0,7" fill="#fb923c"/></marker>
    <marker id="arr-model" markerWidth="10" markerHeight="7" refX="9" refY="3.5" orient="auto"><polygon points="0,0 10,3.5 0,7" fill="#a78bfa"/></marker>
    <marker id="arr-token" markerWidth="10" markerHeight="7" refX="9" refY="3.5" orient="auto"><polygon points="0,0 10,3.5 0,7" fill="#34d399"/></marker>
    <marker id="arr-output" markerWidth="10" markerHeight="7" refX="9" refY="3.5" orient="auto"><polygon points="0,0 10,3.5 0,7" fill="#34d399"/></marker>
    <marker id="arr-gate" markerWidth="10" markerHeight="7" refX="9" refY="3.5" orient="auto"><polygon points="0,0 10,3.5 0,7" fill="#fbbf24"/></marker>
    <marker id="arr-tool" markerWidth="10" markerHeight="7" refX="9" refY="3.5" orient="auto"><polygon points="0,0 10,3.5 0,7" fill="#22d3ee"/></marker>
    <marker id="arr-memory" markerWidth="10" markerHeight="7" refX="9" refY="3.5" orient="auto"><polygon points="0,0 10,3.5 0,7" fill="#f472b6"/></marker>
    <marker id="arr-error" markerWidth="10" markerHeight="7" refX="9" refY="3.5" orient="auto"><polygon points="0,0 10,3.5 0,7" fill="#f87171"/></marker>
  </defs>
  <rect width="1200" height="480" fill="#020617"/>
  <rect width="1200" height="480" fill="url(#grid)"/>
  <text x="600" y="38" text-anchor="middle" font-size="18" font-weight="700" fill="#f1f5f9">캡스톤 — 데이터에서 HuggingFace Hub 까지 10 단계</text>
  <text x="600" y="60" text-anchor="middle" font-size="12" fill="#94a3b8">본 책 8 Part 가 모이는 자리 · 본인 모델이 다음 사람의 "기성 sLLM"</text>
  <path d="M 372,150 L 408,150" stroke="#64748b" stroke-width="1.8" fill="none" marker-end="url(#arr)"/>
  <path d="M 512,150 L 548,150" stroke="#64748b" stroke-width="1.8" fill="none" marker-end="url(#arr)"/>
  <path d="M 652,150 L 688,150" stroke="#64748b" stroke-width="1.8" fill="none" marker-end="url(#arr)"/>
  <path d="M 792,150 L 828,150" stroke="#64748b" stroke-width="1.8" fill="none" marker-end="url(#arr)"/>
  <rect x="270" y="110" width="100" height="100" rx="10" fill="#0f172a"/>
  <rect x="270" y="110" width="100" height="100" rx="10" fill="rgba(96,165,250,0.15)" stroke="#60a5fa" stroke-width="1.5"/>
  <text x="320.0" y="156.0" text-anchor="middle" font-size="14" font-weight="700" fill="#bfdbfe">1. 도메인</text>
  <text x="320.0" y="172.0" text-anchor="middle" font-size="11" font-family="JetBrains Mono, monospace" fill="#60a5fa">Ch 5</text>
  <rect x="410" y="110" width="100" height="100" rx="10" fill="#0f172a"/>
  <rect x="410" y="110" width="100" height="100" rx="10" fill="rgba(96,165,250,0.15)" stroke="#60a5fa" stroke-width="1.5"/>
  <text x="460.0" y="156.0" text-anchor="middle" font-size="14" font-weight="700" fill="#bfdbfe">2. PII 마스킹</text>
  <text x="460.0" y="172.0" text-anchor="middle" font-size="11" font-family="JetBrains Mono, monospace" fill="#60a5fa">Ch 29</text>
  <rect x="550" y="110" width="100" height="100" rx="10" fill="#0f172a"/>
  <rect x="550" y="110" width="100" height="100" rx="10" fill="rgba(52,211,153,0.15)" stroke="#34d399" stroke-width="1.5"/>
  <text x="600.0" y="156.0" text-anchor="middle" font-size="14" font-weight="700" fill="#a7f3d0">3. BPE</text>
  <text x="600.0" y="172.0" text-anchor="middle" font-size="11" font-family="JetBrains Mono, monospace" fill="#34d399">Ch 6</text>
  <rect x="690" y="110" width="100" height="100" rx="10" fill="#0f172a"/>
  <rect x="690" y="110" width="100" height="100" rx="10" fill="rgba(167,139,250,0.15)" stroke="#a78bfa" stroke-width="1.5"/>
  <text x="740.0" y="156.0" text-anchor="middle" font-size="14" font-weight="700" fill="#ddd6fe">4. config</text>
  <text x="740.0" y="172.0" text-anchor="middle" font-size="11" font-family="JetBrains Mono, monospace" fill="#a78bfa">Ch 4·11</text>
  <rect x="830" y="110" width="100" height="100" rx="10" fill="#0f172a"/>
  <rect x="830" y="110" width="100" height="100" rx="10" fill="rgba(167,139,250,0.15)" stroke="#a78bfa" stroke-width="1.5"/>
  <text x="880.0" y="156.0" text-anchor="middle" font-size="14" font-weight="700" fill="#ddd6fe">5. 학습</text>
  <text x="880.0" y="172.0" text-anchor="middle" font-size="11" font-family="JetBrains Mono, monospace" fill="#a78bfa">Ch 12~15</text>
  <path d="M 938 150 L 1120 150 L 1120 270 L 880 270" stroke="#64748b" stroke-width="1.8" fill="none" marker-end="url(#arr)"/>
  <path d="M 828,330 L 792,330" stroke="#64748b" stroke-width="1.8" fill="none" marker-end="url(#arr)"/>
  <path d="M 688,330 L 652,330" stroke="#64748b" stroke-width="1.8" fill="none" marker-end="url(#arr)"/>
  <path d="M 548,330 L 512,330" stroke="#64748b" stroke-width="1.8" fill="none" marker-end="url(#arr)"/>
  <path d="M 408,330 L 372,330" stroke="#64748b" stroke-width="1.8" fill="none" marker-end="url(#arr)"/>
  <rect x="830" y="290" width="100" height="100" rx="10" fill="#0f172a"/>
  <rect x="830" y="290" width="100" height="100" rx="10" fill="rgba(251,191,36,0.15)" stroke="#fbbf24" stroke-width="1.5"/>
  <text x="880.0" y="336.0" text-anchor="middle" font-size="14" font-weight="700" fill="#fde68a">6. 평가</text>
  <text x="880.0" y="352.0" text-anchor="middle" font-size="11" font-family="JetBrains Mono, monospace" fill="#fbbf24">Ch 16~18·30</text>
  <rect x="690" y="290" width="100" height="100" rx="10" fill="#0f172a"/>
  <rect x="690" y="290" width="100" height="100" rx="10" fill="rgba(251,146,60,0.15)" stroke="#fb923c" stroke-width="1.5"/>
  <text x="740.0" y="336.0" text-anchor="middle" font-size="14" font-weight="700" fill="#fed7aa">7. 양자화</text>
  <text x="740.0" y="352.0" text-anchor="middle" font-size="11" font-family="JetBrains Mono, monospace" fill="#fb923c">Ch 19·20</text>
  <rect x="550" y="290" width="100" height="100" rx="10" fill="#0f172a"/>
  <rect x="550" y="290" width="100" height="100" rx="10" fill="rgba(244,114,182,0.15)" stroke="#f472b6" stroke-width="1.5"/>
  <text x="600.0" y="336.0" text-anchor="middle" font-size="14" font-weight="700" fill="#fbcfe8">8. HF Hub</text>
  <text x="600.0" y="352.0" text-anchor="middle" font-size="11" font-family="JetBrains Mono, monospace" fill="#f472b6">캡스톤 §4</text>
  <rect x="410" y="290" width="100" height="100" rx="10" fill="#0f172a"/>
  <rect x="410" y="290" width="100" height="100" rx="10" fill="rgba(52,211,153,0.2)" stroke="#34d399" stroke-width="1.5"/>
  <text x="460.0" y="336.0" text-anchor="middle" font-size="14" font-weight="700" fill="#a7f3d0">9. Spaces</text>
  <text x="460.0" y="352.0" text-anchor="middle" font-size="11" font-family="JetBrains Mono, monospace" fill="#34d399">캡스톤 §4.4</text>
  <rect x="270" y="290" width="100" height="100" rx="10" fill="#0f172a"/>
  <rect x="270" y="290" width="100" height="100" rx="10" fill="rgba(52,211,153,0.2)" stroke="#34d399" stroke-width="1.5"/>
  <text x="320.0" y="336.0" text-anchor="middle" font-size="14" font-weight="700" fill="#a7f3d0">10. 회고</text>
  <text x="320.0" y="352.0" text-anchor="middle" font-size="11" font-family="JetBrains Mono, monospace" fill="#34d399">한 페이지</text>
  <text x="600" y="440" text-anchor="middle" font-size="12" fill="#94a3b8">→ HuggingFace Hub 에 본인 모델이 등록 · 다음 학습자에게 "기성 sLLM"</text>
</svg>