<svg xmlns="http://www.w3.org/2000/svg" viewBox="0 0 1000 460" font-family="Pretendard, -apple-system, BlinkMacSystemFont, sans-serif">
  <defs>
    <pattern id="grid" width="40" height="40" patternUnits="userSpaceOnUse">
      <path d="M 40 0 L 0 0 0 40" fill="none" stroke="#1e293b" stroke-width="0.5"/>
    </pattern>
    <marker id="arr" markerWidth="10" markerHeight="7" refX="9" refY="3.5" orient="auto"><polygon points="0,0 10,3.5 0,7" fill="#64748b"/></marker>
    <marker id="arr-input" markerWidth="10" markerHeight="7" refX="9" refY="3.5" orient="auto"><polygon points="0,0 10,3.5 0,7" fill="#60a5fa"/></marker>
    <marker id="arr-llm" markerWidth="10" markerHeight="7" refX="9" refY="3.5" orient="auto"><polygon points="0,0 10,3.5 0,7" fill="#fb923c"/></marker>
    <marker id="arr-model" markerWidth="10" markerHeight="7" refX="9" refY="3.5" orient="auto"><polygon points="0,0 10,3.5 0,7" fill="#a78bfa"/></marker>
    <marker id="arr-token" markerWidth="10" markerHeight="7" refX="9" refY="3.5" orient="auto"><polygon points="0,0 10,3.5 0,7" fill="#34d399"/></marker>
    <marker id="arr-output" markerWidth="10" markerHeight="7" refX="9" refY="3.5" orient="auto"><polygon points="0,0 10,3.5 0,7" fill="#34d399"/></marker>
    <marker id="arr-gate" markerWidth="10" markerHeight="7" refX="9" refY="3.5" orient="auto"><polygon points="0,0 10,3.5 0,7" fill="#fbbf24"/></marker>
    <marker id="arr-tool" markerWidth="10" markerHeight="7" refX="9" refY="3.5" orient="auto"><polygon points="0,0 10,3.5 0,7" fill="#22d3ee"/></marker>
    <marker id="arr-memory" markerWidth="10" markerHeight="7" refX="9" refY="3.5" orient="auto"><polygon points="0,0 10,3.5 0,7" fill="#f472b6"/></marker>
    <marker id="arr-error" markerWidth="10" markerHeight="7" refX="9" refY="3.5" orient="auto"><polygon points="0,0 10,3.5 0,7" fill="#f87171"/></marker>
  </defs>
  <rect width="1000" height="460" fill="#020617"/>
  <rect width="1000" height="460" fill="url(#grid)"/>
  <text x="500" y="38" text-anchor="middle" font-size="18" font-weight="700" fill="#f1f5f9">학습 메모리 분해 — 14N + activation</text>
  <text x="500" y="60" text-anchor="middle" font-size="12" fill="#94a3b8">bf16 mixed precision 기준 · 본 책 10M / 125M / 1B 비교</text>
  <text x="260" y="100" text-anchor="middle" font-size="14" font-weight="700" fill="#f1f5f9">10M</text>
  <text x="260" y="382" text-anchor="middle" font-size="11" fill="#cbd5e1" font-family="JetBrains Mono, monospace">0.96 GB</text>
  <rect x="190" y="348.0" width="140" height="0.25" fill="rgba(52,211,153,0.15)" stroke="#34d399" stroke-width="1.2"/>
  <rect x="190" y="348.25" width="140" height="0.25" fill="rgba(251,191,36,0.15)" stroke="#fbbf24" stroke-width="1.2"/>
  <rect x="190" y="348.5" width="140" height="0.5" fill="rgba(244,114,182,0.15)" stroke="#f472b6" stroke-width="1.2"/>
  <rect x="190" y="349.0" width="140" height="0.5" fill="rgba(244,114,182,0.15)" stroke="#f472b6" stroke-width="1.2"/>
  <rect x="190" y="349.5" width="140" height="10.499999999999998" fill="rgba(167,139,250,0.15)" stroke="#a78bfa" stroke-width="1.2"/>
  <text x="500" y="100" text-anchor="middle" font-size="14" font-weight="700" fill="#f1f5f9">125M</text>
  <text x="500" y="382" text-anchor="middle" font-size="11" fill="#cbd5e1" font-family="JetBrains Mono, monospace">3.00 GB</text>
  <rect x="430" y="322.5" width="140" height="3.125" fill="rgba(52,211,153,0.15)" stroke="#34d399" stroke-width="1.2"/>
  <rect x="430" y="325.625" width="140" height="3.125" fill="rgba(251,191,36,0.15)" stroke="#fbbf24" stroke-width="1.2"/>
  <rect x="430" y="328.75" width="140" height="6.25" fill="rgba(244,114,182,0.15)" stroke="#f472b6" stroke-width="1.2"/>
  <rect x="430" y="335.0" width="140" height="6.25" fill="rgba(244,114,182,0.15)" stroke="#f472b6" stroke-width="1.2"/>
  <rect x="430" y="341.25" width="140" height="18.75" fill="rgba(167,139,250,0.15)" stroke="#a78bfa" stroke-width="1.2"/>
  <text x="740" y="100" text-anchor="middle" font-size="14" font-weight="700" fill="#f1f5f9">1B</text>
  <text x="740" y="382" text-anchor="middle" font-size="11" fill="#cbd5e1" font-family="JetBrains Mono, monospace">20.00 GB</text>
  <rect x="670" y="110.0" width="140" height="25.0" fill="rgba(52,211,153,0.15)" stroke="#34d399" stroke-width="1.2"/>
  <text x="740" y="126.5" text-anchor="middle" font-size="10" fill="#a7f3d0">params</text>
  <text x="740" y="140.5" text-anchor="middle" font-size="9" fill="#34d399" font-family="JetBrains Mono, monospace">2.00GB</text>
  <rect x="670" y="135.0" width="140" height="25.0" fill="rgba(251,191,36,0.15)" stroke="#fbbf24" stroke-width="1.2"/>
  <text x="740" y="151.5" text-anchor="middle" font-size="10" fill="#fde68a">grads</text>
  <text x="740" y="165.5" text-anchor="middle" font-size="9" fill="#fbbf24" font-family="JetBrains Mono, monospace">2.00GB</text>
  <rect x="670" y="160.0" width="140" height="50.0" fill="rgba(244,114,182,0.15)" stroke="#f472b6" stroke-width="1.2"/>
  <text x="740" y="189.0" text-anchor="middle" font-size="10" fill="#fbcfe8">Adam m</text>
  <text x="740" y="203.0" text-anchor="middle" font-size="9" fill="#f472b6" font-family="JetBrains Mono, monospace">4.00GB</text>
  <rect x="670" y="210.0" width="140" height="50.0" fill="rgba(244,114,182,0.15)" stroke="#f472b6" stroke-width="1.2"/>
  <text x="740" y="239.0" text-anchor="middle" font-size="10" fill="#fbcfe8">Adam v</text>
  <text x="740" y="253.0" text-anchor="middle" font-size="9" fill="#f472b6" font-family="JetBrains Mono, monospace">4.00GB</text>
  <rect x="670" y="260.0" width="140" height="100.0" fill="rgba(167,139,250,0.15)" stroke="#a78bfa" stroke-width="1.2"/>
  <text x="740" y="314.0" text-anchor="middle" font-size="10" fill="#ddd6fe">activation</text>
  <text x="740" y="328.0" text-anchor="middle" font-size="9" fill="#a78bfa" font-family="JetBrains Mono, monospace">8.00GB</text>
  <text x="500" y="410" text-anchor="middle" font-size="10" fill="#94a3b8">* activation = batch · seq · hidden · layer · 14 (대략) · 2 byte</text>
  <text x="500" y="432" text-anchor="middle" font-size="10" fill="#94a3b8">** B=32, T=512 가정 · gradient checkpointing 안 함</text>
</svg>