<svg xmlns="http://www.w3.org/2000/svg" viewBox="0 0 1100 540" font-family="Pretendard, -apple-system, BlinkMacSystemFont, sans-serif">
  <defs>
    <pattern id="grid" width="40" height="40" patternUnits="userSpaceOnUse">
      <path d="M 40 0 L 0 0 0 40" fill="none" stroke="#f1f5f9" stroke-width="0.5"/>
    </pattern>
    <marker id="arr" markerWidth="10" markerHeight="7" refX="9" refY="3.5" orient="auto"><polygon points="0,0 10,3.5 0,7" fill="#6b7280"/></marker>
    <marker id="arr-input" markerWidth="10" markerHeight="7" refX="9" refY="3.5" orient="auto"><polygon points="0,0 10,3.5 0,7" fill="#2563eb"/></marker>
    <marker id="arr-llm" markerWidth="10" markerHeight="7" refX="9" refY="3.5" orient="auto"><polygon points="0,0 10,3.5 0,7" fill="#ea580c"/></marker>
    <marker id="arr-model" markerWidth="10" markerHeight="7" refX="9" refY="3.5" orient="auto"><polygon points="0,0 10,3.5 0,7" fill="#7c3aed"/></marker>
    <marker id="arr-token" markerWidth="10" markerHeight="7" refX="9" refY="3.5" orient="auto"><polygon points="0,0 10,3.5 0,7" fill="#059669"/></marker>
    <marker id="arr-output" markerWidth="10" markerHeight="7" refX="9" refY="3.5" orient="auto"><polygon points="0,0 10,3.5 0,7" fill="#059669"/></marker>
    <marker id="arr-gate" markerWidth="10" markerHeight="7" refX="9" refY="3.5" orient="auto"><polygon points="0,0 10,3.5 0,7" fill="#ca8a04"/></marker>
    <marker id="arr-tool" markerWidth="10" markerHeight="7" refX="9" refY="3.5" orient="auto"><polygon points="0,0 10,3.5 0,7" fill="#0891b2"/></marker>
    <marker id="arr-memory" markerWidth="10" markerHeight="7" refX="9" refY="3.5" orient="auto"><polygon points="0,0 10,3.5 0,7" fill="#db2777"/></marker>
    <marker id="arr-error" markerWidth="10" markerHeight="7" refX="9" refY="3.5" orient="auto"><polygon points="0,0 10,3.5 0,7" fill="#dc2626"/></marker>
  </defs>
  <rect width="1100" height="540" fill="#ffffff"/>
  <rect width="1100" height="540" fill="url(#grid)"/>
  <text x="550" y="38" text-anchor="middle" font-size="18" font-weight="700" fill="#0f172a">오픈 웨이트 SLM 풍경 — 디바이스 사다리 + dense/MoE</text>
  <text x="550" y="60" text-anchor="middle" font-size="12" fill="#64748b">크기는 디바이스에 맞춘 정확한 컷. MoE 는 메모리 / 활성 두 숫자.</text>
  <rect x="60" y="105" width="300" height="98" rx="10" fill="#ffffff"/>
  <rect x="60" y="105" width="300" height="98" rx="10" fill="#e3f2fd" stroke="#2563eb" stroke-width="1.5"/>
  <text x="210.0" y="150.0" text-anchor="middle" font-size="14" font-weight="700" fill="#0d47a1">모바일 (4GB)</text>
  <text x="210.0" y="166.0" text-anchor="middle" font-size="11" font-family="JetBrains Mono, monospace" fill="#1e40af">0.5B ~ 2B</text>
  <text x="210.0" y="182.0" text-anchor="middle" font-size="10" fill="#1e40af">Llama 3.2-1B / Gemma 2-2B</text>
  <rect x="60" y="213" width="300" height="98" rx="10" fill="#ffffff"/>
  <rect x="60" y="213" width="300" height="98" rx="10" fill="#dcfce7" stroke="#059669" stroke-width="1.5"/>
  <text x="210.0" y="258.0" text-anchor="middle" font-size="14" font-weight="700" fill="#064e3b">노트북 (16GB)</text>
  <text x="210.0" y="274.0" text-anchor="middle" font-size="11" font-family="JetBrains Mono, monospace" fill="#047857">3B ~ 7B</text>
  <text x="210.0" y="290.0" text-anchor="middle" font-size="10" fill="#047857">Phi-3-mini / Qwen 2.5-3B</text>
  <rect x="60" y="321" width="300" height="98" rx="10" fill="#ffffff"/>
  <rect x="60" y="321" width="300" height="98" rx="10" fill="#f3e8ff" stroke="#7c3aed" stroke-width="1.5"/>
  <text x="210.0" y="366.0" text-anchor="middle" font-size="14" font-weight="700" fill="#4c1d95">단일 A100 (80GB)</text>
  <text x="210.0" y="382.0" text-anchor="middle" font-size="11" font-family="JetBrains Mono, monospace" fill="#6d28d9">8B ~ 30B</text>
  <text x="210.0" y="398.0" text-anchor="middle" font-size="10" fill="#6d28d9">Llama 3 8B / Phi-3-medium</text>
  <rect x="60" y="429" width="300" height="98" rx="10" fill="#ffffff"/>
  <rect x="60" y="429" width="300" height="98" rx="10" fill="#fef3e0" stroke="#ea580c" stroke-width="1.5"/>
  <text x="210.0" y="474.0" text-anchor="middle" font-size="14" font-weight="700" fill="#9a3412">큰 GPU + 양자화</text>
  <text x="210.0" y="490.0" text-anchor="middle" font-size="11" font-family="JetBrains Mono, monospace" fill="#c2410c">70B (int4)</text>
  <text x="210.0" y="506.0" text-anchor="middle" font-size="10" fill="#c2410c">Llama 3 70B / Qwen 2.5-72B</text>
  <text x="740" y="100" text-anchor="middle" font-size="14" fill="#64748b">dense  vs  MoE</text>
  <rect x="460" y="130" width="320" height="110" rx="10" fill="#ffffff"/>
  <rect x="460" y="130" width="320" height="110" rx="10" fill="#dcfce7" stroke="#059669" stroke-width="1.5"/>
  <text x="620.0" y="181.0" text-anchor="middle" font-size="14" font-weight="700" fill="#064e3b">dense</text>
  <text x="620.0" y="197.0" text-anchor="middle" font-size="11" font-family="JetBrains Mono, monospace" fill="#047857">모든 파라미터 활성</text>
  <text x="620.0" y="213.0" text-anchor="middle" font-size="10" fill="#047857">Llama 3 70B = 70B 메모리 + 70B 속도</text>
  <rect x="790" y="130" width="320" height="110" rx="10" fill="#ffffff"/>
  <rect x="790" y="130" width="320" height="110" rx="10" fill="#fce7f3" stroke="#db2777" stroke-width="1.5"/>
  <text x="950.0" y="181.0" text-anchor="middle" font-size="14" font-weight="700" fill="#500724">MoE</text>
  <text x="950.0" y="197.0" text-anchor="middle" font-size="11" font-family="JetBrains Mono, monospace" fill="#be185d">router 가 k 개 expert 만</text>
  <text x="950.0" y="213.0" text-anchor="middle" font-size="10" fill="#be185d">Mixtral 8×7B = 47B 메모리 + 13B 속도</text>
  <text x="740" y="260" text-anchor="middle" font-size="11" fill="#64748b">같은 표기 모델 둘 — 메모리 vs 속도 비교</text>
  <text x="472" y="282" font-size="11" fill="#0f172a">Llama 3 70B (dense)</text>
  <text x="700" y="282" font-size="11" font-family="JetBrains Mono, monospace" fill="#be185d">140 GB</text>
  <text x="820" y="282" font-size="11" font-family="JetBrains Mono, monospace" fill="#047857">70B 속도</text>
  <text x="472" y="308" font-size="11" fill="#0f172a">Mixtral 8×7B (MoE)</text>
  <text x="700" y="308" font-size="11" font-family="JetBrains Mono, monospace" fill="#be185d">90 GB</text>
  <text x="820" y="308" font-size="11" font-family="JetBrains Mono, monospace" fill="#047857">13B 속도</text>
  <text x="472" y="334" font-size="11" fill="#0f172a">DeepSeek-V3 (MoE)</text>
  <text x="700" y="334" font-size="11" font-family="JetBrains Mono, monospace" fill="#be185d">671B 메모리</text>
  <text x="820" y="334" font-size="11" font-family="JetBrains Mono, monospace" fill="#047857">37B 속도</text>
  <rect x="60" y="470" width="300" height="70" rx="10" fill="#ffffff"/>
  <rect x="60" y="470" width="300" height="70" rx="10" fill="#d1fae5" stroke="#059669" stroke-width="1.5"/>
  <text x="210.0" y="501.0" text-anchor="middle" font-size="14" font-weight="700" fill="#064e3b">본 책 from-scratch</text>
  <text x="210.0" y="517.0" text-anchor="middle" font-size="11" font-family="JetBrains Mono, monospace" fill="#047857">10M dense decoder</text>
  <text x="210.0" y="533.0" text-anchor="middle" font-size="10" fill="#047857">어디든 들어가는 작은 디코더</text>
  <rect x="570" y="470" width="330" height="70" rx="10" fill="#ffffff"/>
  <rect x="570" y="470" width="330" height="70" rx="10" fill="#fef9c3" stroke="#ca8a04" stroke-width="1.5"/>
  <text x="735.0" y="501.0" text-anchor="middle" font-size="14" font-weight="700" fill="#713f12">본 책 캡스톤 (LoRA)</text>
  <text x="735.0" y="517.0" text-anchor="middle" font-size="11" font-family="JetBrains Mono, monospace" fill="#a16207">Qwen 2.5-0.5B + 어댑터</text>
  <text x="735.0" y="533.0" text-anchor="middle" font-size="10" fill="#a16207">기성 + 본인 도메인</text>
</svg>