<svg xmlns="http://www.w3.org/2000/svg" viewBox="0 0 1100 420" font-family="Pretendard, -apple-system, BlinkMacSystemFont, sans-serif">
  <defs>
    <pattern id="grid" width="40" height="40" patternUnits="userSpaceOnUse">
      <path d="M 40 0 L 0 0 0 40" fill="none" stroke="#f1f5f9" stroke-width="0.5"/>
    </pattern>
    <marker id="arr" markerWidth="10" markerHeight="7" refX="9" refY="3.5" orient="auto"><polygon points="0,0 10,3.5 0,7" fill="#6b7280"/></marker>
    <marker id="arr-input" markerWidth="10" markerHeight="7" refX="9" refY="3.5" orient="auto"><polygon points="0,0 10,3.5 0,7" fill="#2563eb"/></marker>
    <marker id="arr-llm" markerWidth="10" markerHeight="7" refX="9" refY="3.5" orient="auto"><polygon points="0,0 10,3.5 0,7" fill="#ea580c"/></marker>
    <marker id="arr-model" markerWidth="10" markerHeight="7" refX="9" refY="3.5" orient="auto"><polygon points="0,0 10,3.5 0,7" fill="#7c3aed"/></marker>
    <marker id="arr-token" markerWidth="10" markerHeight="7" refX="9" refY="3.5" orient="auto"><polygon points="0,0 10,3.5 0,7" fill="#059669"/></marker>
    <marker id="arr-output" markerWidth="10" markerHeight="7" refX="9" refY="3.5" orient="auto"><polygon points="0,0 10,3.5 0,7" fill="#059669"/></marker>
    <marker id="arr-gate" markerWidth="10" markerHeight="7" refX="9" refY="3.5" orient="auto"><polygon points="0,0 10,3.5 0,7" fill="#ca8a04"/></marker>
    <marker id="arr-tool" markerWidth="10" markerHeight="7" refX="9" refY="3.5" orient="auto"><polygon points="0,0 10,3.5 0,7" fill="#0891b2"/></marker>
    <marker id="arr-memory" markerWidth="10" markerHeight="7" refX="9" refY="3.5" orient="auto"><polygon points="0,0 10,3.5 0,7" fill="#db2777"/></marker>
    <marker id="arr-error" markerWidth="10" markerHeight="7" refX="9" refY="3.5" orient="auto"><polygon points="0,0 10,3.5 0,7" fill="#dc2626"/></marker>
  </defs>
  <rect width="1100" height="420" fill="#ffffff"/>
  <rect width="1100" height="420" fill="url(#grid)"/>
  <text x="550" y="38" text-anchor="middle" font-size="18" font-weight="700" fill="#0f172a">양자화 — 비트 줄이기와 트레이드오프</text>
  <text x="550" y="60" text-anchor="middle" font-size="12" fill="#64748b">비트 절반 = 메모리 절반 · 정확도 손실은 양자화 품질에 달려 있다</text>
  <text x="80" y="86" font-size="12" font-weight="700" fill="#0f172a">메모리 (10M 모델 기준)</text>
  <rect x="80" y="100" width="340" height="44" rx="6" fill="#f3e8ff" stroke="#7c3aed" stroke-width="1.5"/>
  <text x="92" y="127" font-size="14" font-weight="700" font-family="JetBrains Mono, monospace" fill="#4c1d95">fp32</text>
  <text x="160" y="120" font-size="11" font-family="JetBrains Mono, monospace" fill="#6d28d9">4 bytes</text>
  <text x="428" y="127" font-size="12" font-weight="700" font-family="JetBrains Mono, monospace" fill="#4c1d95">40MB</text>
  <rect x="80" y="162" width="170" height="44" rx="6" fill="#e3f2fd" stroke="#2563eb" stroke-width="1.5"/>
  <text x="92" y="189" font-size="14" font-weight="700" font-family="JetBrains Mono, monospace" fill="#0d47a1">fp16</text>
  <text x="160" y="182" font-size="11" font-family="JetBrains Mono, monospace" fill="#1e40af">2 bytes</text>
  <text x="258" y="189" font-size="12" font-weight="700" font-family="JetBrains Mono, monospace" fill="#0d47a1">20MB</text>
  <rect x="80" y="224" width="85" height="44" rx="6" fill="#dcfce7" stroke="#059669" stroke-width="1.5"/>
  <text x="92" y="251" font-size="14" font-weight="700" font-family="JetBrains Mono, monospace" fill="#064e3b">int8</text>
  <text x="160" y="244" font-size="11" font-family="JetBrains Mono, monospace" fill="#047857">1 bytes</text>
  <text x="173" y="251" font-size="12" font-weight="700" font-family="JetBrains Mono, monospace" fill="#064e3b">10MB</text>
  <rect x="80" y="286" width="42" height="44" rx="6" fill="#fef9c3" stroke="#ca8a04" stroke-width="1.5"/>
  <text x="92" y="313" font-size="14" font-weight="700" font-family="JetBrains Mono, monospace" fill="#713f12">int4</text>
  <text x="160" y="306" font-size="11" font-family="JetBrains Mono, monospace" fill="#a16207">0.5 bytes</text>
  <text x="130" y="313" font-size="12" font-weight="700" font-family="JetBrains Mono, monospace" fill="#713f12">5MB</text>
  <rect x="520" y="86" width="80" height="32" fill="#f3e8ff" stroke="#7c3aed" stroke-width="1"/>
  <text x="560" y="106" text-anchor="middle" font-size="12" font-weight="700" fill="#4c1d95">형식</text>
  <rect x="600" y="86" width="140" height="32" fill="#f3e8ff" stroke="#7c3aed" stroke-width="1"/>
  <text x="670" y="106" text-anchor="middle" font-size="12" font-weight="700" fill="#4c1d95">정확도</text>
  <rect x="740" y="86" width="120" height="32" fill="#f3e8ff" stroke="#7c3aed" stroke-width="1"/>
  <text x="800" y="106" text-anchor="middle" font-size="12" font-weight="700" fill="#4c1d95">bytes</text>
  <rect x="860" y="86" width="200" height="32" fill="#f3e8ff" stroke="#7c3aed" stroke-width="1"/>
  <text x="960" y="106" text-anchor="middle" font-size="12" font-weight="700" fill="#4c1d95">용도</text>
  <rect x="520" y="118" width="80" height="44" fill="#ffffff" stroke="#e2e8f0" stroke-width="1"/>
  <text x="560" y="145" text-anchor="middle" font-size="11" font-weight="700" font-family="JetBrains Mono, monospace" fill="#4c1d95">fp32</text>
  <rect x="600" y="118" width="140" height="44" fill="#ffffff" stroke="#e2e8f0" stroke-width="1"/>
  <text x="670" y="145" text-anchor="middle" font-size="11" font-weight="500" font-family="JetBrains Mono, monospace" fill="#334155">기준 (0%)</text>
  <rect x="740" y="118" width="120" height="44" fill="#ffffff" stroke="#e2e8f0" stroke-width="1"/>
  <text x="800" y="145" text-anchor="middle" font-size="11" font-weight="500" font-family="JetBrains Mono, monospace" fill="#334155">4</text>
  <rect x="860" y="118" width="200" height="44" fill="#ffffff" stroke="#e2e8f0" stroke-width="1"/>
  <text x="960" y="145" text-anchor="middle" font-size="11" font-weight="500" font-family="JetBrains Mono, monospace" fill="#334155">훈련 중 gradient</text>
  <rect x="520" y="162" width="80" height="44" fill="#ffffff" stroke="#e2e8f0" stroke-width="1"/>
  <text x="560" y="189" text-anchor="middle" font-size="11" font-weight="700" font-family="JetBrains Mono, monospace" fill="#0d47a1">fp16</text>
  <rect x="600" y="162" width="140" height="44" fill="#ffffff" stroke="#e2e8f0" stroke-width="1"/>
  <text x="670" y="189" text-anchor="middle" font-size="11" font-weight="500" font-family="JetBrains Mono, monospace" fill="#334155"><1% 손실</text>
  <rect x="740" y="162" width="120" height="44" fill="#ffffff" stroke="#e2e8f0" stroke-width="1"/>
  <text x="800" y="189" text-anchor="middle" font-size="11" font-weight="500" font-family="JetBrains Mono, monospace" fill="#334155">2</text>
  <rect x="860" y="162" width="200" height="44" fill="#ffffff" stroke="#e2e8f0" stroke-width="1"/>
  <text x="960" y="189" text-anchor="middle" font-size="11" font-weight="500" font-family="JetBrains Mono, monospace" fill="#334155">추론·혼합 정밀도</text>
  <rect x="520" y="206" width="80" height="44" fill="#ffffff" stroke="#e2e8f0" stroke-width="1"/>
  <text x="560" y="233" text-anchor="middle" font-size="11" font-weight="700" font-family="JetBrains Mono, monospace" fill="#064e3b">int8</text>
  <rect x="600" y="206" width="140" height="44" fill="#ffffff" stroke="#e2e8f0" stroke-width="1"/>
  <text x="670" y="233" text-anchor="middle" font-size="11" font-weight="500" font-family="JetBrains Mono, monospace" fill="#334155">2~5% 손실</text>
  <rect x="740" y="206" width="120" height="44" fill="#ffffff" stroke="#e2e8f0" stroke-width="1"/>
  <text x="800" y="233" text-anchor="middle" font-size="11" font-weight="500" font-family="JetBrains Mono, monospace" fill="#334155">1</text>
  <rect x="860" y="206" width="200" height="44" fill="#ffffff" stroke="#e2e8f0" stroke-width="1"/>
  <text x="960" y="233" text-anchor="middle" font-size="11" font-weight="500" font-family="JetBrains Mono, monospace" fill="#334155">llama.cpp Q8_0</text>
  <rect x="520" y="250" width="80" height="44" fill="#d1fae5" stroke="#e2e8f0" stroke-width="1"/>
  <text x="560" y="277" text-anchor="middle" font-size="11" font-weight="700" font-family="JetBrains Mono, monospace" fill="#713f12">int4</text>
  <rect x="600" y="250" width="140" height="44" fill="#d1fae5" stroke="#e2e8f0" stroke-width="1"/>
  <text x="670" y="277" text-anchor="middle" font-size="11" font-weight="700" font-family="JetBrains Mono, monospace" fill="#064e3b">5~15% 손실</text>
  <rect x="740" y="250" width="120" height="44" fill="#d1fae5" stroke="#e2e8f0" stroke-width="1"/>
  <text x="800" y="277" text-anchor="middle" font-size="11" font-weight="700" font-family="JetBrains Mono, monospace" fill="#064e3b">0.5</text>
  <rect x="860" y="250" width="200" height="44" fill="#d1fae5" stroke="#e2e8f0" stroke-width="1"/>
  <text x="960" y="277" text-anchor="middle" font-size="11" font-weight="700" font-family="JetBrains Mono, monospace" fill="#064e3b">GGUF Q4_K_M · 본 책</text>
  <text x="550" y="400" text-anchor="middle" font-size="12" fill="#64748b">본 책 10M · fp16=20MB → Q4_K_M=5MB · 노트북·모바일 즉시 실행</text>
</svg>