<svg xmlns="http://www.w3.org/2000/svg" viewBox="0 0 1100 420" font-family="Pretendard, -apple-system, BlinkMacSystemFont, sans-serif">
  <defs>
    <pattern id="grid" width="40" height="40" patternUnits="userSpaceOnUse">
      <path d="M 40 0 L 0 0 0 40" fill="none" stroke="#f1f5f9" stroke-width="0.5"/>
    </pattern>
    <marker id="arr" markerWidth="10" markerHeight="7" refX="9" refY="3.5" orient="auto"><polygon points="0,0 10,3.5 0,7" fill="#6b7280"/></marker>
    <marker id="arr-input" markerWidth="10" markerHeight="7" refX="9" refY="3.5" orient="auto"><polygon points="0,0 10,3.5 0,7" fill="#2563eb"/></marker>
    <marker id="arr-llm" markerWidth="10" markerHeight="7" refX="9" refY="3.5" orient="auto"><polygon points="0,0 10,3.5 0,7" fill="#ea580c"/></marker>
    <marker id="arr-model" markerWidth="10" markerHeight="7" refX="9" refY="3.5" orient="auto"><polygon points="0,0 10,3.5 0,7" fill="#7c3aed"/></marker>
    <marker id="arr-token" markerWidth="10" markerHeight="7" refX="9" refY="3.5" orient="auto"><polygon points="0,0 10,3.5 0,7" fill="#059669"/></marker>
    <marker id="arr-output" markerWidth="10" markerHeight="7" refX="9" refY="3.5" orient="auto"><polygon points="0,0 10,3.5 0,7" fill="#059669"/></marker>
    <marker id="arr-gate" markerWidth="10" markerHeight="7" refX="9" refY="3.5" orient="auto"><polygon points="0,0 10,3.5 0,7" fill="#ca8a04"/></marker>
    <marker id="arr-tool" markerWidth="10" markerHeight="7" refX="9" refY="3.5" orient="auto"><polygon points="0,0 10,3.5 0,7" fill="#0891b2"/></marker>
    <marker id="arr-memory" markerWidth="10" markerHeight="7" refX="9" refY="3.5" orient="auto"><polygon points="0,0 10,3.5 0,7" fill="#db2777"/></marker>
    <marker id="arr-error" markerWidth="10" markerHeight="7" refX="9" refY="3.5" orient="auto"><polygon points="0,0 10,3.5 0,7" fill="#dc2626"/></marker>
  </defs>
  <rect width="1100" height="420" fill="#ffffff"/>
  <rect width="1100" height="420" fill="url(#grid)"/>
  <text x="550" y="38" text-anchor="middle" font-size="18" font-weight="700" fill="#0f172a">합성 데이터 3줄기 — TinyStories · Phi · Cosmopedia</text>
  <text x="550" y="60" text-anchor="middle" font-size="12" fill="#64748b">작은 모델의 부활을 이끈 세 계보 — 아래로 갈수록 규모 ↑</text>
  <rect x="150" y="90" width="240" height="110" rx="10" fill="#fef3e0" stroke="#ea580c" stroke-width="2"/>
  <text x="270" y="116" text-anchor="middle" font-size="15" font-weight="700" fill="#9a3412">TinyStories 라인</text>
  <text x="270" y="134" text-anchor="middle" font-size="11" font-family="JetBrains Mono, monospace" fill="#c2410c">Eldan & Li, 2023</text>
  <text x="270" y="155" text-anchor="middle" font-size="12" font-weight="700" fill="#9a3412">좁은 도메인</text>
  <text x="270" y="169" text-anchor="middle" font-size="12" font-weight="700" fill="#9a3412">+ 합성 동화</text>
  <rect x="150" y="216" width="240" height="64" rx="8" fill="#f8fafc" stroke="#e2e8f0" stroke-width="1"/>
  <text x="270" y="238" text-anchor="middle" font-size="11" font-family="JetBrains Mono, monospace" fill="#334155">200M 토큰 · 3-4세 어휘</text>
  <text x="270" y="254" text-anchor="middle" font-size="11" font-family="JetBrains Mono, monospace" fill="#334155">1M 모델도 일관성</text>
  <path d="M 270,280 L 270,364" stroke="#6b7280" stroke-width="1.8" fill="none" marker-end="url(#arr)"/>
  <rect x="430" y="90" width="240" height="110" rx="10" fill="#f3e8ff" stroke="#7c3aed" stroke-width="2"/>
  <text x="550" y="116" text-anchor="middle" font-size="15" font-weight="700" fill="#4c1d95">Phi 라인</text>
  <text x="550" y="134" text-anchor="middle" font-size="11" font-family="JetBrains Mono, monospace" fill="#6d28d9">Phi-1, 2023</text>
  <text x="550" y="155" text-anchor="middle" font-size="12" font-weight="700" fill="#4c1d95">교과서 스타일</text>
  <text x="550" y="169" text-anchor="middle" font-size="12" font-weight="700" fill="#4c1d95">합성 데이터</text>
  <rect x="430" y="216" width="240" height="64" rx="8" fill="#f8fafc" stroke="#e2e8f0" stroke-width="1"/>
  <text x="550" y="238" text-anchor="middle" font-size="11" font-family="JetBrains Mono, monospace" fill="#334155">코드·추론 압축</text>
  <text x="550" y="254" text-anchor="middle" font-size="11" font-family="JetBrains Mono, monospace" fill="#334155">1.3B > 7B on HumanEval</text>
  <path d="M 550,280 L 550,364" stroke="#6b7280" stroke-width="1.8" fill="none" marker-end="url(#arr)"/>
  <rect x="710" y="90" width="240" height="110" rx="10" fill="#dcfce7" stroke="#059669" stroke-width="2"/>
  <text x="830" y="116" text-anchor="middle" font-size="15" font-weight="700" fill="#064e3b">Cosmopedia 라인</text>
  <text x="830" y="134" text-anchor="middle" font-size="11" font-family="JetBrains Mono, monospace" fill="#047857">HuggingFace, 2024</text>
  <text x="830" y="155" text-anchor="middle" font-size="12" font-weight="700" fill="#064e3b">대규모 오픈</text>
  <text x="830" y="169" text-anchor="middle" font-size="12" font-weight="700" fill="#064e3b">합성 코퍼스</text>
  <rect x="710" y="216" width="240" height="64" rx="8" fill="#f8fafc" stroke="#e2e8f0" stroke-width="1"/>
  <text x="830" y="238" text-anchor="middle" font-size="11" font-family="JetBrains Mono, monospace" fill="#334155">30B 토큰 · Mixtral 생성</text>
  <text x="830" y="254" text-anchor="middle" font-size="11" font-family="JetBrains Mono, monospace" fill="#334155">SmolLM2 학습 데이터</text>
  <path d="M 830,280 L 830,364" stroke="#6b7280" stroke-width="1.8" fill="none" marker-end="url(#arr)"/>
  <rect x="350" y="364" width="400" height="46" rx="10" fill="#d1fae5" stroke="#059669" stroke-width="2"/>
  <text x="550" y="384" text-anchor="middle" font-size="14" font-weight="700" fill="#064e3b">학습 데이터 풀</text>
  <text x="550" y="402" text-anchor="middle" font-size="11" font-family="JetBrains Mono, monospace" fill="#047857">본 책 = TinyStories 영어판 + 한국어 합성본 혼합</text>
</svg>